<?xml version="1.0" encoding="UTF-8"?>
<svg width="48" height="48" viewBox="0 0 48 48" xmlns="http://www.w3.org/2000/svg">
  <rect x="2" y="8" width="44" height="32" rx="6" fill="#111827"/>
  <path d="M11.2 28.6c0-2.5 2.3-3.5 4.3-4.1 1.6-.5 2.3-.9 2.3-1.7 0-.7-.7-1.3-2-1.3-1.3 0-2.6.5-3.6 1.4l-1.8-2.2c1.4-1.3 3.4-2.1 5.6-2.1 3.1 0 5.3 1.6 5.3 4.2 0 2.6-2.1 3.6-4.1 4.2-1.8.5-2.5 1-2.5 1.8h6.7v2.8h-9.9c-.2-.4-.3-1-.3-1.8Zm13.4 4.6v-12h5.7c3 0 4.8 1.7 4.8 4s-1.8 4-4.8 4h-2.7v4h-3Zm3-6.8h2.5c1.1 0 1.8-.6 1.8-1.6s-.7-1.6-1.8-1.6h-2.5v3.2Zm13.6 6.8-1-2.8h-5.6l-1 2.8h-3.1l5.4-12h3l5.4 12h-3.1Zm-4-10.1-1.7 4.4h3.4l-1.7-4.4Z" fill="#fff"/>
</svg>
